<?xml version="1.0" standalone="no"?>
<!DOCTYPE svg PUBLIC "-//W3C//DTD SVG 20010904//EN"
 "http://www.w3.org/TR/2001/REC-SVG-20010904/DTD/svg10.dtd">
<svg version="1.0" xmlns="http://www.w3.org/2000/svg"
 width="120.000000pt" height="120.000000pt" viewBox="0 0 120.000000 120.000000"
 preserveAspectRatio="xMidYMid meet">

<g transform="translate(0.000000,120.000000) scale(0.100000,-0.100000)"
fill="#000000" stroke="none">
<path d="M676 1115 c-52 -56 -76 -57 -147 -8 -44 30 -63 37 -103 38 l-48 0
-39 -105 c-21 -58 -39 -112 -39 -121 0 -13 -16 -17 -82 -23 -86 -7 -115 -19
-88 -36 19 -12 920 -13 939 -1 27 17 -1 30 -79 37 -76 6 -81 8 -86 33 -29 127
-59 183 -115 211 -55 28 -67 26 -113 -25z"/>
<path d="M740 729 c-79 -37 -80 -37 -56 -55 46 -33 126 5 126 61 0 14 -1 25
-2 24 -2 0 -32 -14 -68 -30z"/>
<path d="M360 730 c0 -12 11 -32 25 -45 27 -28 80 -33 109 -12 16 12 11 16
-51 45 -82 38 -83 38 -83 12z"/>
<path d="M750 540 c-22 -17 -41 -20 -161 -20 -104 0 -140 3 -155 15 -27 20
-51 20 -34 0 11 -13 -7 -15 -149 -15 -112 0 -161 -3 -161 -11 0 -6 25 -105 55
-219 30 -114 55 -217 55 -229 l0 -21 398 0 397 0 12 58 c7 31 32 134 57 227
25 94 46 176 46 183 0 9 -41 12 -172 12 -134 0 -169 3 -160 12 13 13 16 28 5
28 -5 0 -19 -9 -33 -20z m-380 -135 c0 -2 -18 -14 -40 -25 -48 -25 -51 -47 -7
-58 49 -13 49 -46 -2 -71 -22 -12 -46 -21 -53 -21 -7 0 8 10 32 23 53 26 57
48 13 61 -52 14 -38 59 27 85 31 12 30 12 30 6z m65 -36 c-7 -38 -6 -40 13
-30 10 6 22 7 26 4 11 -11 7 -93 -5 -93 -7 0 -8 14 -4 41 6 36 5 40 -11 37
-11 -1 -29 -23 -41 -48 -23 -46 -31 -36 -13 16 5 16 14 48 20 72 14 54 24 55
15 1z m116 -4 c-9 -33 -8 -36 7 -30 9 4 22 7 27 8 14 3 18 -59 5 -80 -9 -14
-10 -9 -6 25 5 31 3 42 -7 42 -18 0 -42 -28 -56 -65 l-11 -30 5 37 c8 50 35
141 41 135 3 -3 1 -22 -5 -42z m173 20 c7 -19 -3 -72 -21 -107 -13 -28 -53
-46 -72 -33 -28 17 -5 121 33 147 19 13 54 9 60 -7z m211 -53 c-3 -7 -5 -32
-5 -55 0 -30 -3 -38 -11 -30 -9 9 -16 9 -30 0 -15 -9 -22 -8 -34 4 -30 30 15
95 64 95 14 0 20 -5 16 -14z m-177 -28 c-5 -20 -7 -38 -4 -41 8 -8 36 17 59
52 l19 30 -7 -30 c-4 -16 -14 -55 -21 -85 -13 -53 -13 -53 -11 -13 2 41 2 41
-25 36 -31 -6 -33 0 -22 56 4 17 10 31 14 31 5 0 4 -16 -2 -36z"/>
<path d="M672 383 c-31 -12 -57 -113 -33 -127 28 -18 75 51 69 101 -3 27 -14
35 -36 26z"/>
<path d="M877 312 c-27 -29 -19 -72 9 -54 13 8 34 46 34 61 0 17 -25 13 -43
-7z"/>
</g>
</svg>
